<mxfile host="app.diagrams.net" modified="2024-03-20T03:17:11.642Z" agent="Mozilla/5.0 (Macintosh; Intel Mac OS X 10_15_7) AppleWebKit/537.36 (KHTML, like Gecko) Chrome/122.0.0.0 Safari/537.36" version="24.0.7" etag="4R3xH4DSqgN4o9MFS7pc" type="github">
  <diagram name="第 1 页" id="3XRt2bfYMPgi3uyVRn-K">
    <mxGraphModel>
      <root>
        <mxCell id="0" />
        <mxCell id="1" parent="0" />
      </root>
    </mxGraphModel>
  </diagram>
</mxfile>
